<svg width="0" height="0" class="hidden">

  <symbol version="1.1" id="facebook" xmlns="http://www.w3.org/2000/svg" xmlns:xlink="http://www.w3.org/1999/xlink" x="0px" y="0px" xml:space="preserve" viewBox="0 0 291.319 291.319">

    <g>

      <path d="M145.659,0c80.45,0,145.66,65.219,145.66,145.66c0,80.45-65.21,145.659-145.66,145.659

		S0,226.109,0,145.66C0,65.219,65.21,0,145.659,0z"></path>

      <path d="M163.394,100.277h18.772v-27.73h-22.067v0.1c-26.738,0.947-32.218,15.977-32.701,31.763h-0.055

		v13.847h-18.207v27.156h18.207v72.793h27.439v-72.793h22.477l4.342-27.156h-26.81v-8.366

		C154.791,104.556,158.341,100.277,163.394,100.277z"></path>

    </g>

    <g></g>

    <g></g>

    <g></g>

    <g></g>

    <g></g>

    <g></g>

    <g></g>

    <g></g>

    <g></g>

    <g></g>

    <g></g>

    <g></g>

    <g></g>

    <g></g>

    <g></g>

  </symbol>

  <symbol version="1.1" id="linkedin" xmlns="http://www.w3.org/2000/svg" xmlns:xlink="http://www.w3.org/1999/xlink" x="0px" y="0px" xml:space="preserve" viewBox="0 0 455.731 455.731">

    <g>

      <rect x="0" y="0" width="455.731" height="455.731"></rect>

      <g>

        <path d="M107.255,69.215c20.873,0.017,38.088,17.257,38.043,38.234c-0.05,21.965-18.278,38.52-38.3,38.043

			c-20.308,0.411-38.155-16.551-38.151-38.188C68.847,86.319,86.129,69.199,107.255,69.215z"></path>

        <path d="M129.431,386.471H84.71c-5.804,0-10.509-4.705-10.509-10.509V185.18

			c0-5.804,4.705-10.509,10.509-10.509h44.721c5.804,0,10.509,4.705,10.509,10.509v190.783

			C139.939,381.766,135.235,386.471,129.431,386.471z"></path>

        <path d="M386.884,241.682c0-39.996-32.423-72.42-72.42-72.42h-11.47c-21.882,0-41.214,10.918-52.842,27.606

			c-1.268,1.819-2.442,3.708-3.52,5.658c-0.373-0.056-0.594-0.085-0.599-0.075v-23.418c0-2.409-1.953-4.363-4.363-4.363h-55.795

			c-2.409,0-4.363,1.953-4.363,4.363V382.11c0,2.409,1.952,4.362,4.361,4.363l57.011,0.014c2.41,0.001,4.364-1.953,4.364-4.363

			V264.801c0-20.28,16.175-37.119,36.454-37.348c10.352-0.117,19.737,4.031,26.501,10.799c6.675,6.671,10.802,15.895,10.802,26.079

			v117.808c0,2.409,1.953,4.362,4.361,4.363l57.152,0.014c2.41,0.001,4.364-1.953,4.364-4.363V241.682z"></path>

      </g>

    </g>

    <g></g>

    <g></g>

    <g></g>

    <g></g>

    <g></g>

    <g></g>

    <g></g>

    <g></g>

    <g></g>

    <g></g>

    <g></g>

    <g></g>

    <g></g>

    <g></g>

    <g></g>

  </symbol>

  <symbol xmlns="http://www.w3.org/2000/svg" viewBox="0 0 60 60" id="mail">

    <rect fill="#fff" height="60" rx="10" width="60"></rect>

    <rect fill="#f1f3f4" height="32" rx="4" width="44" x="8" y="14"></rect>

    <path d="M48,47.5H12A5.506,5.506,0,0,1,6.5,42V18A5.506,5.506,0,0,1,12,12.5H48A5.506,5.506,0,0,1,53.5,18V42A5.506,5.506,0,0,1,48,47.5Zm-36-32A2.5,2.5,0,0,0,9.5,18V42A2.5,2.5,0,0,0,12,44.5H48A2.5,2.5,0,0,0,50.5,42V18A2.5,2.5,0,0,0,48,15.5Z" fill="#f29580"></path>

    <path d="M25.577,28.825a6,6,0,0,1,8.846,0L49.772,45.569A3.956,3.956,0,0,1,48,46H12a3.956,3.956,0,0,1-1.772-.431Z" fill="#f1f3f4"></path>

    <path d="M48,47.5H12a5.453,5.453,0,0,1-2.439-.587,1.5,1.5,0,0,1-.438-2.357L24.471,27.812a7.5,7.5,0,0,1,11.058,0L50.877,44.556a1.5,1.5,0,0,1-.438,2.357A5.453,5.453,0,0,1,48,47.5Zm-34.756-3H46.756L33.317,29.839a4.5,4.5,0,0,0-6.634,0h0ZM25.577,28.825h0Z" fill="#f29580"></path>

    <path d="M25.577,31.175a6,6,0,0,0,8.846,0L49.772,14.431A3.956,3.956,0,0,0,48,14H12a3.956,3.956,0,0,0-1.772.431Z" fill="#f1f3f4"></path>

    <path d="M30,34.621a7.518,7.518,0,0,1-5.529-2.433L9.123,15.444a1.5,1.5,0,0,1,.438-2.357A5.453,5.453,0,0,1,12,12.5H48a5.453,5.453,0,0,1,2.439.587,1.5,1.5,0,0,1,.438,2.357L35.529,32.188A7.518,7.518,0,0,1,30,34.621ZM13.244,15.5,26.683,30.161h0a4.5,4.5,0,0,0,6.634,0L46.756,15.5Z" fill="#f2bf80"></path>

  </symbol>

  <symbol version="1.1" id="phone" xmlns="http://www.w3.org/2000/svg" xmlns:xlink="http://www.w3.org/1999/xlink" x="0px" y="0px" xml:space="preserve" viewBox="0 0 512 512">

    <path d="M339.852,0H172.145c-27.238,0-49.399,22.16-49.399,49.399V462.6c0,27.238,22.16,49.399,49.399,49.399

	h167.707c27.238,0,49.399-22.16,49.399-49.399V49.399C389.251,22.16,367.09,0,339.852,0z"></path>

    <rect x="122.755" y="82.233" width="266.48" height="343.259"></rect>

    <g>

      <rect x="230.442" y="452.451" width="51.116" height="31.347"></rect>

      <rect x="199.053" y="46.709" width="78.356" height="18.807"></rect>

      <rect x="294.139" y="46.709" width="18.797" height="18.807"></rect>

    </g>

    <path d="M389.254,49.403v413.194c0,27.241-22.162,49.403-49.403,49.403h-83.916V0h83.916

	C367.091,0,389.254,22.162,389.254,49.403z"></path>

    <rect x="255.937" y="82.233" width="133.308" height="343.259"></rect>

    <g>

      <rect x="255.937" y="452.451" width="25.621" height="31.347"></rect>

      <rect x="255.937" y="46.707" width="21.473" height="18.808"></rect>

      <rect x="294.139" y="46.709" width="18.797" height="18.807"></rect>

    </g>

    <g></g>

    <g></g>

    <g></g>

    <g></g>

    <g></g>

    <g></g>

    <g></g>

    <g></g>

    <g></g>

    <g></g>

    <g></g>

    <g></g>

    <g></g>

    <g></g>

    <g></g>

  </symbol>

  <symbol version="1.1" id="placeholde" xmlns="http://www.w3.org/2000/svg" xmlns:xlink="http://www.w3.org/1999/xlink" x="0px" y="0px" xml:space="preserve" viewBox="0 0 512 512">

    <polygon points="449.362,503.83 405.787,503.83 328.998,459.266 328.998,404.698 350.23,404.698 "></polygon>

    <polygon points="328.998,404.698 405.787,503.83 62.638,503.83 161.77,404.698 "></polygon>

    <path d="M257.547,8.181L256,454.58l133.643-188.972c18.748-26.591,29.761-59.022,29.761-94.034

	C419.404,81.844,347.082,9.009,257.547,8.181z"></path>

    <path d="M375.83,171.574c0,35.012-8.083,67.442-21.831,94.034L256,454.58L122.357,265.608

	c-18.748-26.591-29.761-59.022-29.761-94.034C92.596,81.332,165.757,8.17,256,8.17c0.512,0,1.035,0,1.547,0.011

	C323.018,9.314,375.83,82.04,375.83,171.574z"></path>

    <path d="M256,100.766v141.617c39.043,0,70.809-31.766,70.809-70.809S295.043,100.766,256,100.766z"></path>

    <path d="M256,100.766c21.025,0,38.128,31.766,38.128,70.809S277.025,242.383,256,242.383

	c-39.043,0-70.809-31.766-70.809-70.809S216.957,100.766,256,100.766z"></path>

    <path d="M455.139,498.052l-99.132-99.132c-1.532-1.532-3.61-2.392-5.777-2.392h-18.927c-4.512,0-8.17,3.657-8.17,8.17

	c0,4.513,3.658,8.17,8.17,8.17h15.542l82.791,82.791H82.362l82.791-82.791h15.542c4.512,0,8.17-3.657,8.17-8.17

	c0-4.513-3.658-8.17-8.17-8.17H161.77c-2.167,0-4.245,0.861-5.777,2.392l-99.132,99.132c-2.337,2.338-3.036,5.851-1.771,8.904

	S59.334,512,62.638,512h386.723c3.304,0,6.283-1.99,7.548-5.044C458.175,503.903,457.475,500.39,455.139,498.052z"></path>

    <path d="M249.329,459.294c1.532,2.165,4.019,3.452,6.671,3.452s5.14-1.288,6.671-3.452L396.32,270.32

	c20.448-29.004,31.256-63.15,31.256-98.746C427.574,76.968,350.607,0,256,0S84.426,76.968,84.426,171.574

	c0,35.596,10.808,69.742,31.262,98.756L249.329,459.294z M256,16.34c85.597,0,155.234,69.637,155.234,155.234

	c0,32.206-9.776,63.097-28.263,89.32L256,440.427L129.037,260.905c-18.495-26.234-28.271-57.125-28.271-89.331

	C100.766,85.978,170.403,16.34,256,16.34z"></path>

    <path d="M200.047,215.665c3.837-2.375,5.023-7.41,2.649-11.247c-6.107-9.87-9.335-21.225-9.335-32.843

	c0-34.539,28.099-62.638,62.638-62.638s62.638,28.099,62.638,62.638S290.539,234.213,256,234.213

	c-11.617,0-22.974-3.228-32.843-9.335c-3.839-2.376-8.873-1.187-11.247,2.649c-2.374,3.837-1.188,8.873,2.649,11.247

	c12.454,7.706,26.784,11.779,41.44,11.779c43.549,0,78.979-35.429,78.979-78.979S299.549,92.596,256,92.596

	s-78.979,35.429-78.979,78.979c0,14.657,4.073,28.988,11.779,41.441C191.175,216.852,196.21,218.038,200.047,215.665z"></path>

    <g></g>

    <g></g>

    <g></g>

    <g></g>

    <g></g>

    <g></g>

    <g></g>

    <g></g>

    <g></g>

    <g></g>

    <g></g>

    <g></g>

    <g></g>

    <g></g>

    <g></g>

  </symbol>

  <symbol version="1.1" id="twitter" xmlns="http://www.w3.org/2000/svg" xmlns:xlink="http://www.w3.org/1999/xlink" x="0px" y="0px" xml:space="preserve" viewBox="0 0 512 512">

    <circle cx="256" cy="256" r="256"></circle>

    <path d="M393.014,139.326c-26.703,23.169-53.253,43.475-74.954,71.852

	c-53.381,64.372-118.613,155.7-207.386,142.086l158.61,158.396c134.456-6.873,241.497-117.493,242.686-253.376L393.014,139.326z"></path>

    <path d="M397.872,162.471c-6.513,2.889-13.271,5.167-20.208,6.815c7.644-7.261,13.39-16.346,16.631-26.484

	c0.926-2.893-2.219-5.398-4.832-3.848c-9.65,5.725-20.044,10.016-30.894,12.762c-0.628,0.16-1.276,0.24-1.929,0.24

	c-1.979,0-3.896-0.733-5.411-2.065c-11.542-10.174-26.39-15.777-41.805-15.777c-6.672,0-13.405,1.04-20.016,3.091

	c-20.487,6.353-36.295,23.254-41.257,44.103c-1.86,7.818-2.362,15.648-1.496,23.264c0.097,0.876-0.314,1.486-0.569,1.772

	c-0.45,0.502-1.084,0.791-1.745,0.791c-0.072,0-0.15-0.003-0.224-0.01c-44.846-4.168-85.287-25.772-113.869-60.837

	c-1.455-1.789-4.253-1.569-5.415,0.422c-5.596,9.606-8.554,20.589-8.554,31.766c0,17.127,6.884,33.27,18.837,45.039

	c-5.027-1.193-9.893-3.07-14.414-5.582c-2.188-1.214-4.877,0.35-4.908,2.851c-0.31,25.445,14.588,48.087,36.905,58.282

	c-0.45,0.01-0.9,0.014-1.35,0.014c-3.537,0-7.121-0.338-10.645-1.015c-2.463-0.467-4.532,1.867-3.768,4.253

	c7.246,22.618,26.717,39.288,50.021,43.07c-19.339,12.983-41.863,19.83-65.302,19.83l-7.306-0.003c-2.255,0-4.16,1.469-4.73,3.65

	c-0.565,2.145,0.474,4.413,2.396,5.53c26.412,15.372,56.541,23.495,87.138,23.495c26.784,0,51.838-5.313,74.466-15.798

	c20.745-9.609,39.076-23.345,54.486-40.827c14.357-16.286,25.581-35.085,33.365-55.879c7.418-19.816,11.34-40.967,11.34-61.154

	v-0.964c0-3.241,1.465-6.291,4.024-8.37c9.706-7.882,18.16-17.158,25.122-27.572C403.796,164.578,400.896,161.13,397.872,162.471

	L397.872,162.471z"></path>

    <path d="M397.872,162.471c-6.515,2.889-13.271,5.167-20.208,6.815c7.644-7.261,13.39-16.346,16.632-26.484

	c0.926-2.893-2.219-5.398-4.832-3.848c-9.65,5.725-20.044,10.016-30.894,12.762c-0.628,0.16-1.276,0.24-1.929,0.24

	c-1.979,0-3.896-0.733-5.411-2.065c-11.542-10.174-26.39-15.777-41.805-15.777c-6.671,0-13.405,1.04-20.016,3.091

	c-14.322,4.441-26.343,14.048-33.985,26.546v205.477c6.222-2.029,12.293-4.403,18.198-7.139

	c20.745-9.609,39.076-23.345,54.486-40.827c14.357-16.287,25.581-35.085,33.365-55.879c7.418-19.816,11.34-40.967,11.34-61.154

	v-0.964c0-3.241,1.465-6.291,4.024-8.37c9.706-7.882,18.16-17.158,25.122-27.572C403.796,164.578,400.896,161.13,397.872,162.471z"></path>

    <g></g>

    <g></g>

    <g></g>

    <g></g>

    <g></g>

    <g></g>

    <g></g>

    <g></g>

    <g></g>

    <g></g>

    <g></g>

    <g></g>

    <g></g>

    <g></g>

    <g></g>

  </symbol>

</svg>